# xmcd CD database file
#
# Track frame offsets:
#	182
#	14772
#	31562
#	47987
#	60075
#	73337
#	85545
#	99142
#	110542
#	122927
#	134800
#	146680
#	158912
#	172912
#	181220
#	193462
#	206835
#	217355
#	230492
#	244765
#
# Disc length: 3427 seconds
#
# Revision: 1
# Processed by: cddbd v1.5.2PL0 Copyright (c) Steve Scherf et al.
# Submitted via: CDex 1.51
#
DISCID=2b0d6114
DTITLE=Hank Williams Jr. - Standing In The Shadows
DYEAR=1988
DGENRE=Country
TTITLE0=Standing In The Shadows
TTITLE1=Can't You See
TTITLE2=Living Proof
TTITLE3=Cajun Baby
TTITLE4=A-EEE
TTITLE5=Eleven Roses
TTITLE6=A Baby Again
TTITLE7=After All They Used To Belong To Me
TTITLE8=Divorce Or Destroy
TTITLE9=It's All Over But The Crying
TTITLE10=Guess What, That's Right, She's Gone
TTITLE11=(I Heard That) Lonesome Whistle 
TTITLE12=Detroit City
TTITLE13=Long Gone Lonesome Blues
TTITLE14=Hank
TTITLE15=Hamburger Steak, Holiday Inn
TTITLE16=Ain't That A Shame
TTITLE17=Rainin' In My Heart
TTITLE18=Pride's Not Hard To Swallow
TTITLE19=The Last Love Song
EXTD=YEAR: 1988
EXTT0=
EXTT1=
EXTT2=
EXTT3=
EXTT4=
EXTT5=
EXTT6=
EXTT7=
EXTT8=
EXTT9=
EXTT10=
EXTT11=
EXTT12=
EXTT13=
EXTT14=
EXTT15=
EXTT16=
EXTT17=
EXTT18=
EXTT19=
PLAYORDER=
